<?xml version="1.0" encoding="utf-8"?>
<!-- Generator: Adobe Illustrator 27.6.1, SVG Export Plug-In . SVG Version: 6.00 Build 0)  -->
<svg version="1.1" id="Layer_1" xmlns="http://www.w3.org/2000/svg" xmlns:xlink="http://www.w3.org/1999/xlink" x="0px" y="0px"
	 viewBox="0 0 720 720" style="enable-background:new 0 0 720 720;" xml:space="preserve">
<style type="text/css">
	.st0{enable-background:new    ;}
	.st1{fill:#346833;}
	.st2{fill:#FFCE35;}
	.st3{fill:#981C20;}
	.st4{fill:#FFFFFF;}
</style>
<g id="LOGO_1">
</g>
<g id="LOGO_2">
	<g>
		<g class="st0">
			<path class="st1" d="M99.4,427.1l0.6,12.4h-1.5c-0.3-2.2-0.7-3.8-1.2-4.7c-0.8-1.5-1.9-2.6-3.2-3.3c-1.3-0.7-3.1-1.1-5.3-1.1
				h-7.5V471c0,3.3,0.4,5.3,1.1,6.1c1,1.1,2.5,1.6,4.6,1.6h1.8v1.4H66.3v-1.4h1.9c2.2,0,3.8-0.7,4.8-2c0.6-0.8,0.9-2.7,0.9-5.7
				v-40.5h-6.4c-2.5,0-4.2,0.2-5.3,0.5c-1.4,0.5-2.5,1.4-3.5,2.9c-1,1.4-1.5,3.3-1.7,5.7h-1.5l0.6-12.4H99.4z"/>
			<path class="st1" d="M126.6,430v21h11.7c3,0,5-0.5,6.1-1.4c1.4-1.2,2.1-3.3,2.3-6.3h1.4v18.5h-1.4c-0.4-2.6-0.7-4.2-1.1-5
				c-0.5-0.9-1.2-1.6-2.3-2.2c-1.1-0.5-2.7-0.8-4.9-0.8h-11.7v17.5c0,2.3,0.1,3.8,0.3,4.3c0.2,0.5,0.6,0.9,1.1,1.2
				c0.5,0.3,1.5,0.5,3,0.5h9c3,0,5.2-0.2,6.5-0.6c1.4-0.4,2.7-1.2,3.9-2.5c1.6-1.6,3.3-4.1,5-7.3h1.6l-4.6,13.3h-40.9v-1.4h1.9
				c1.3,0,2.4-0.3,3.6-0.9c0.8-0.4,1.4-1,1.7-1.9s0.5-2.5,0.5-5.1v-34.5c0-3.4-0.3-5.4-1-6.2c-0.9-1-2.5-1.6-4.7-1.6h-1.9v-1.4h40.9
				l0.6,11.6h-1.5c-0.5-2.8-1.2-4.7-1.8-5.8c-0.7-1-1.6-1.8-3-2.4c-1-0.4-2.9-0.6-5.5-0.6H126.6z"/>
			<path class="st1" d="M199.6,480.1l-20.5-44.6V471c0,3.3,0.4,5.3,1.1,6.1c1,1.1,2.5,1.6,4.6,1.6h1.9v1.4h-18.5v-1.4h1.9
				c2.2,0,3.8-0.7,4.8-2c0.6-0.8,0.9-2.7,0.9-5.7v-34.7c0-2.3-0.3-4-0.8-5.1c-0.4-0.8-1-1.4-2-1.9s-2.5-0.8-4.7-0.8v-1.4h15
				l19.2,41.5l18.9-41.5h15v1.4h-1.8c-2.3,0-3.9,0.7-4.8,2c-0.6,0.8-0.9,2.7-0.9,5.7V471c0,3.3,0.4,5.3,1.1,6.1
				c1,1.1,2.5,1.6,4.6,1.6h1.8v1.4h-22.5v-1.4h1.9c2.3,0,3.9-0.7,4.8-2c0.6-0.8,0.9-2.7,0.9-5.7v-35.4l-20.5,44.6H199.6z"/>
			<path class="st1" d="M262.4,455.3v15.5c0,3.3,0.4,5.4,1.1,6.2c1,1.1,2.5,1.7,4.5,1.7h2v1.4h-22.7v-1.4h2c2.2,0,3.8-0.7,4.8-2.2
				c0.5-0.8,0.8-2.7,0.8-5.8v-34.3c0-3.3-0.4-5.4-1.1-6.2c-1-1.1-2.5-1.7-4.5-1.7h-2v-1.4h19.4c4.7,0,8.5,0.5,11.2,1.5
				c2.7,1,5,2.6,6.9,4.9c1.9,2.3,2.8,5.1,2.8,8.3c0,4.3-1.4,7.8-4.3,10.6c-2.9,2.7-6.9,4.1-12.1,4.1c-1.3,0-2.7-0.1-4.1-0.3
				C265.7,455.9,264.1,455.7,262.4,455.3z M262.4,453.1c1.4,0.3,2.6,0.5,3.7,0.6c1.1,0.1,2,0.2,2.7,0.2c2.7,0,5.1-1,7-3.1
				c2-2.1,3-4.8,3-8.2c0-2.3-0.5-4.4-1.4-6.4c-0.9-2-2.3-3.4-4-4.4c-1.7-1-3.7-1.5-5.9-1.5c-1.3,0-3,0.2-5.1,0.7V453.1z"/>
			<path class="st1" d="M344.4,465.5l1.3,0.3l-4.5,14.4H300v-1.4h2c2.2,0,3.8-0.7,4.8-2.2c0.5-0.8,0.8-2.8,0.8-5.8v-34.2
				c0-3.3-0.4-5.4-1.1-6.2c-1-1.1-2.5-1.7-4.5-1.7h-2v-1.4h24v1.4c-2.8,0-4.8,0.2-5.9,0.8s-1.9,1.2-2.3,2.1c-0.4,0.8-0.6,2.8-0.6,6
				v33.3c0,2.2,0.2,3.7,0.6,4.5c0.3,0.5,0.8,1,1.4,1.2c0.7,0.3,2.7,0.4,6.1,0.4h3.9c4.1,0,6.9-0.3,8.6-0.9s3.1-1.7,4.5-3.2
				S343,468.8,344.4,465.5z"/>
			<path class="st1" d="M372,430v21h11.7c3,0,5-0.5,6.1-1.4c1.4-1.2,2.1-3.3,2.3-6.3h1.4v18.5H392c-0.4-2.6-0.7-4.2-1.1-5
				c-0.5-0.9-1.2-1.6-2.3-2.2s-2.7-0.8-4.9-0.8H372v17.5c0,2.3,0.1,3.8,0.3,4.3c0.2,0.5,0.6,0.9,1.1,1.2s1.5,0.5,3,0.5h9
				c3,0,5.2-0.2,6.5-0.6c1.4-0.4,2.7-1.2,3.9-2.5c1.6-1.6,3.3-4.1,5-7.3h1.6l-4.6,13.3h-40.9v-1.4h1.9c1.3,0,2.4-0.3,3.6-0.9
				c0.8-0.4,1.4-1,1.7-1.9s0.5-2.5,0.5-5.1v-34.5c0-3.4-0.3-5.4-1-6.2c-0.9-1-2.5-1.6-4.7-1.6h-1.9v-1.4h40.9l0.6,11.6h-1.5
				c-0.5-2.8-1.2-4.7-1.8-5.8c-0.7-1-1.7-1.8-3-2.4c-1-0.4-2.9-0.6-5.5-0.6H372z"/>
			<path class="st1" d="M477.1,453.1c3.7,0.8,6.4,2,8.3,3.8c2.5,2.4,3.8,5.3,3.8,8.8c0,2.6-0.8,5.2-2.5,7.6c-1.7,2.4-4,4.2-6.9,5.3
				s-7.3,1.7-13.3,1.7h-25v-1.4h2c2.2,0,3.8-0.7,4.8-2.1c0.6-0.9,0.9-2.9,0.9-5.8v-34.3c0-3.3-0.4-5.4-1.1-6.2
				c-1-1.1-2.5-1.7-4.5-1.7h-2v-1.4h22.9c4.3,0,7.7,0.3,10.3,0.9c3.9,0.9,6.9,2.6,9,5c2.1,2.4,3.1,5.1,3.1,8.2c0,2.7-0.8,5-2.4,7.1
				C482.7,450.5,480.3,452.1,477.1,453.1z M456.6,451c1,0.2,2.1,0.3,3.3,0.4c1.2,0.1,2.6,0.1,4.1,0.1c3.8,0,6.7-0.4,8.6-1.2
				s3.4-2.1,4.4-3.8c1-1.7,1.5-3.5,1.5-5.6c0-3.1-1.3-5.8-3.8-7.9c-2.5-2.2-6.2-3.3-11.1-3.3c-2.6,0-5,0.3-7,0.9V451z M456.6,476.3
				c3,0.7,6,1.1,9,1.1c4.7,0,8.3-1.1,10.8-3.2c2.5-2.1,3.7-4.8,3.7-7.9c0-2.1-0.6-4-1.7-5.9c-1.1-1.9-2.9-3.4-5.5-4.5
				c-2.5-1.1-5.7-1.6-9.4-1.6c-1.6,0-3,0-4.1,0.1c-1.1,0.1-2.1,0.1-2.8,0.3V476.3z"/>
			<path class="st1" d="M518.2,430v21h11.7c3,0,5-0.5,6.1-1.4c1.4-1.2,2.1-3.3,2.3-6.3h1.4v18.5h-1.4c-0.4-2.6-0.7-4.2-1.1-5
				c-0.5-0.9-1.2-1.6-2.3-2.2s-2.7-0.8-4.9-0.8h-11.7v17.5c0,2.3,0.1,3.8,0.3,4.3c0.2,0.5,0.6,0.9,1.1,1.2s1.5,0.5,3,0.5h9
				c3,0,5.2-0.2,6.5-0.6c1.4-0.4,2.7-1.2,3.9-2.5c1.6-1.6,3.3-4.1,5-7.3h1.6l-4.6,13.3h-40.9v-1.4h1.9c1.3,0,2.4-0.3,3.6-0.9
				c0.8-0.4,1.4-1,1.7-1.9s0.5-2.5,0.5-5.1v-34.5c0-3.4-0.3-5.4-1-6.2c-0.9-1-2.5-1.6-4.7-1.6h-1.9v-1.4H544l0.6,11.6h-1.5
				c-0.5-2.8-1.2-4.7-1.8-5.8c-0.7-1-1.7-1.8-3-2.4c-1-0.4-2.9-0.6-5.5-0.6H518.2z"/>
			<path class="st1" d="M604.3,465.5l1.3,0.3l-4.5,14.4H560v-1.4h2c2.2,0,3.8-0.7,4.8-2.2c0.5-0.8,0.8-2.8,0.8-5.8v-34.2
				c0-3.3-0.4-5.4-1.1-6.2c-1-1.1-2.5-1.7-4.5-1.7h-2v-1.4h24v1.4c-2.8,0-4.8,0.2-5.9,0.8c-1.1,0.5-1.9,1.2-2.3,2.1
				c-0.4,0.8-0.6,2.8-0.6,6v33.3c0,2.2,0.2,3.7,0.6,4.5c0.3,0.5,0.8,1,1.4,1.2c0.7,0.3,2.7,0.4,6.1,0.4h3.9c4.1,0,6.9-0.3,8.6-0.9
				s3.1-1.7,4.5-3.2C601.6,471.2,602.9,468.8,604.3,465.5z"/>
			<path class="st1" d="M661.2,465.5l1.3,0.3l-4.5,14.4h-41.1v-1.4h2c2.2,0,3.8-0.7,4.8-2.2c0.5-0.8,0.8-2.8,0.8-5.8v-34.2
				c0-3.3-0.4-5.4-1.1-6.2c-1-1.1-2.5-1.7-4.5-1.7h-2v-1.4h24v1.4c-2.8,0-4.8,0.2-5.9,0.8c-1.1,0.5-1.9,1.2-2.3,2.1
				c-0.4,0.8-0.6,2.8-0.6,6v33.3c0,2.2,0.2,3.7,0.6,4.5c0.3,0.5,0.8,1,1.4,1.2c0.7,0.3,2.7,0.4,6.1,0.4h3.9c4.1,0,6.9-0.3,8.6-0.9
				s3.1-1.7,4.5-3.2C658.5,471.2,659.8,468.8,661.2,465.5z"/>
		</g>
	</g>
	<g>
		<g class="st0">
			<path class="st1" d="M157.8,523.8c1.5,0.3,2.6,0.8,3.3,1.5c1,1,1.5,2.1,1.5,3.5c0,1.1-0.3,2.1-1,3s-1.6,1.7-2.7,2.1
				c-1.2,0.4-2.9,0.7-5.3,0.7h-10V534h0.8c0.9,0,1.5-0.3,1.9-0.8c0.2-0.4,0.4-1.1,0.4-2.3v-13.7c0-1.3-0.2-2.1-0.5-2.5
				c-0.4-0.5-1-0.7-1.8-0.7h-0.8v-0.6h9.2c1.7,0,3.1,0.1,4.1,0.4c1.6,0.4,2.8,1,3.6,2s1.2,2.1,1.2,3.3c0,1.1-0.3,2-1,2.9
				C160.1,522.7,159.1,523.3,157.8,523.8z M149.6,522.9c0.4,0.1,0.8,0.1,1.3,0.2c0.5,0,1,0.1,1.6,0.1c1.5,0,2.7-0.2,3.4-0.5
				c0.8-0.3,1.4-0.8,1.8-1.5s0.6-1.4,0.6-2.2c0-1.2-0.5-2.3-1.5-3.2c-1-0.9-2.5-1.3-4.4-1.3c-1,0-2,0.1-2.8,0.3V522.9z M149.6,533
				c1.2,0.3,2.4,0.4,3.6,0.4c1.9,0,3.3-0.4,4.3-1.3c1-0.8,1.5-1.9,1.5-3.2c0-0.8-0.2-1.6-0.7-2.4c-0.4-0.8-1.2-1.4-2.2-1.8
				c-1-0.4-2.3-0.7-3.8-0.7c-0.6,0-1.2,0-1.7,0c-0.5,0-0.8,0.1-1.1,0.1V533z"/>
			<path class="st1" d="M179.1,512.9c2.8,0,5.1,1,7.2,3.1c2,2.1,3,4.7,3,7.8c0,3.2-1,5.9-3.1,8c-2,2.1-4.5,3.2-7.4,3.2
				c-2.9,0-5.4-1-7.4-3.1s-3-4.8-3-8.1c0-3.4,1.1-6.1,3.4-8.2C173.9,513.8,176.3,512.9,179.1,512.9z M178.8,514
				c-1.9,0-3.4,0.7-4.6,2.1c-1.4,1.8-2.1,4.3-2.1,7.7c0,3.5,0.7,6.1,2.2,8c1.1,1.4,2.6,2.1,4.5,2.1c2,0,3.6-0.8,4.9-2.3
				c1.3-1.6,1.9-4,1.9-7.4c0-3.6-0.7-6.3-2.1-8.1C182.4,514.7,180.8,514,178.8,514z"/>
			<path class="st1" d="M208.8,513.9v-0.6h7.5v0.6h-0.8c-0.8,0-1.5,0.3-1.9,1c-0.2,0.3-0.3,1.1-0.3,2.3v8.6c0,2.1-0.2,3.8-0.6,5
				c-0.4,1.2-1.3,2.2-2.5,3c-1.2,0.8-2.9,1.3-5,1.3c-2.3,0-4.1-0.4-5.3-1.2s-2-1.9-2.5-3.2c-0.3-0.9-0.5-2.7-0.5-5.2v-8.3
				c0-1.3-0.2-2.2-0.5-2.6c-0.4-0.4-0.9-0.6-1.7-0.6h-0.8v-0.6h9.2v0.6H202c-0.9,0-1.5,0.3-1.9,0.8c-0.3,0.4-0.4,1.2-0.4,2.3v9.2
				c0,0.8,0.1,1.8,0.2,2.8c0.2,1.1,0.4,1.9,0.8,2.5c0.4,0.6,1,1.1,1.7,1.5s1.7,0.6,2.7,0.6c1.4,0,2.6-0.3,3.7-0.9
				c1.1-0.6,1.8-1.4,2.2-2.3c0.4-0.9,0.6-2.5,0.6-4.8v-8.6c0-1.3-0.1-2.2-0.4-2.5c-0.4-0.5-1-0.7-1.8-0.7H208.8z"/>
			<path class="st1" d="M238.2,513.4l0.2,5h-0.6c-0.1-0.9-0.3-1.5-0.5-1.9c-0.3-0.6-0.8-1.1-1.3-1.3c-0.5-0.3-1.2-0.4-2.1-0.4h-3
				v16.2c0,1.3,0.1,2.1,0.4,2.4c0.4,0.4,1,0.7,1.8,0.7h0.7v0.6h-9V534h0.8c0.9,0,1.5-0.3,1.9-0.8c0.2-0.3,0.3-1.1,0.3-2.3v-16.2
				h-2.5c-1,0-1.7,0.1-2.1,0.2c-0.5,0.2-1,0.6-1.4,1.1c-0.4,0.6-0.6,1.3-0.7,2.3h-0.6l0.3-5H238.2z"/>
			<path class="st1" d="M252.1,534v0.6H243V534h0.8c0.9,0,1.5-0.3,1.9-0.8c0.3-0.3,0.4-1.1,0.4-2.4v-13.7c0-1.1-0.1-1.8-0.2-2.1
				c-0.1-0.3-0.3-0.5-0.6-0.7c-0.5-0.2-0.9-0.4-1.4-0.4H243v-0.6h9.1v0.6h-0.8c-0.9,0-1.5,0.3-1.9,0.8c-0.3,0.3-0.4,1.1-0.4,2.4
				v13.7c0,1.1,0.1,1.8,0.2,2.1c0.1,0.3,0.3,0.5,0.7,0.7c0.4,0.2,0.9,0.4,1.4,0.4H252.1z"/>
			<path class="st1" d="M269.9,534.8c1.1,1.8,2.2,3.2,3.4,4.1c1.2,0.9,2.6,1.4,4.2,1.5v0.5c-1.4-0.1-3-0.3-4.6-0.9
				c-1.6-0.5-3.2-1.3-4.7-2.2s-2.7-1.9-3.8-3c-1.5-0.6-2.7-1.2-3.6-1.9c-1.3-1-2.3-2.3-3-3.7c-0.7-1.5-1.1-3.2-1.1-5.2
				c0-3.2,1-5.8,3.1-7.9c2.1-2.1,4.5-3.1,7.5-3.1c2.8,0,5.2,1.1,7.2,3.2c2,2.1,3,4.8,3,8c0,2.6-0.7,4.9-2.2,6.8
				C274.1,532.8,272.2,534.1,269.9,534.8z M267.3,514.1c-1.9,0-3.4,0.7-4.6,2c-1.5,1.7-2.2,4.3-2.2,7.8c0,3.4,0.7,6.1,2.2,7.9
				c1.1,1.4,2.7,2.1,4.6,2.1c2,0,3.5-0.7,4.7-2.1c1.4-1.7,2.1-4.2,2.1-7.5c0-2.5-0.4-4.7-1.2-6.4c-0.6-1.3-1.4-2.3-2.4-2.9
				C269.6,514.4,268.5,514.1,267.3,514.1z"/>
			<path class="st1" d="M297.2,513.9v-0.6h7.5v0.6h-0.8c-0.8,0-1.5,0.3-1.9,1c-0.2,0.3-0.3,1.1-0.3,2.3v8.6c0,2.1-0.2,3.8-0.6,5
				c-0.4,1.2-1.3,2.2-2.5,3c-1.2,0.8-2.9,1.3-5,1.3c-2.3,0-4.1-0.4-5.3-1.2s-2-1.9-2.5-3.2c-0.3-0.9-0.5-2.7-0.5-5.2v-8.3
				c0-1.3-0.2-2.2-0.5-2.6c-0.4-0.4-0.9-0.6-1.7-0.6h-0.8v-0.6h9.2v0.6h-0.8c-0.9,0-1.5,0.3-1.9,0.8c-0.3,0.4-0.4,1.2-0.4,2.3v9.2
				c0,0.8,0.1,1.8,0.2,2.8c0.2,1.1,0.4,1.9,0.8,2.5c0.4,0.6,1,1.1,1.7,1.5s1.7,0.6,2.7,0.6c1.4,0,2.6-0.3,3.7-0.9
				c1.1-0.6,1.8-1.4,2.2-2.3c0.4-0.9,0.6-2.5,0.6-4.8v-8.6c0-1.3-0.1-2.2-0.4-2.5c-0.4-0.5-1-0.7-1.8-0.7H297.2z"/>
			<path class="st1" d="M314.7,514.5v8.4h4.7c1.2,0,2-0.2,2.4-0.5c0.5-0.5,0.8-1.3,0.9-2.5h0.6v7.4h-0.6c-0.1-1-0.3-1.7-0.4-2
				c-0.2-0.4-0.5-0.7-0.9-0.9c-0.4-0.2-1.1-0.3-2-0.3h-4.7v7c0,0.9,0,1.5,0.1,1.7c0.1,0.2,0.2,0.4,0.4,0.5c0.2,0.1,0.6,0.2,1.2,0.2
				h3.6c1.2,0,2.1-0.1,2.6-0.3c0.5-0.2,1.1-0.5,1.6-1c0.6-0.6,1.3-1.6,2-2.9h0.6l-1.8,5.3h-16.3V534h0.8c0.5,0,1-0.1,1.4-0.4
				c0.3-0.2,0.6-0.4,0.7-0.8c0.1-0.3,0.2-1,0.2-2v-13.8c0-1.3-0.1-2.2-0.4-2.5c-0.4-0.4-1-0.6-1.9-0.6h-0.8v-0.6h16.3l0.2,4.6h-0.6
				c-0.2-1.1-0.5-1.9-0.7-2.3c-0.3-0.4-0.7-0.7-1.2-1c-0.4-0.2-1.2-0.2-2.2-0.2H314.7z"/>
			<path class="st1" d="M348.2,523.2h9.9v-6.1c0-1.1-0.1-1.8-0.2-2.1c-0.1-0.3-0.3-0.5-0.7-0.7c-0.4-0.2-0.9-0.4-1.4-0.4H355v-0.6
				h9.1v0.6h-0.8c-0.5,0-1,0.1-1.4,0.4c-0.3,0.2-0.6,0.4-0.7,0.8c-0.1,0.3-0.2,1-0.2,2.1v13.7c0,1.1,0.1,1.8,0.2,2.1
				c0.1,0.3,0.3,0.5,0.6,0.7c0.5,0.2,0.9,0.4,1.4,0.4h0.8v0.6H355V534h0.8c0.9,0,1.5-0.3,1.9-0.8c0.3-0.3,0.4-1.1,0.4-2.4v-6.5h-9.9
				v6.5c0,1.1,0.1,1.8,0.2,2.1c0.1,0.3,0.3,0.5,0.7,0.7c0.4,0.2,0.9,0.4,1.4,0.4h0.8v0.6h-9.1V534h0.8c0.9,0,1.5-0.3,1.9-0.8
				c0.2-0.3,0.4-1.1,0.4-2.4v-13.7c0-1.1-0.1-1.8-0.2-2.1c-0.1-0.3-0.3-0.5-0.6-0.7c-0.5-0.2-0.9-0.4-1.4-0.4h-0.8v-0.6h9.1v0.6
				h-0.8c-0.5,0-1,0.1-1.4,0.4c-0.3,0.2-0.5,0.4-0.7,0.8c-0.1,0.3-0.2,1-0.2,2.1V523.2z"/>
			<path class="st1" d="M379.4,512.9c2.8,0,5.1,1,7.2,3.1c2,2.1,3,4.7,3,7.8c0,3.2-1,5.9-3.1,8c-2,2.1-4.5,3.2-7.4,3.2
				c-2.9,0-5.4-1-7.4-3.1c-2-2.1-3-4.8-3-8.1c0-3.4,1.1-6.1,3.4-8.2C374.3,513.8,376.6,512.9,379.4,512.9z M379.1,514
				c-1.9,0-3.4,0.7-4.6,2.1c-1.4,1.8-2.1,4.3-2.1,7.7c0,3.5,0.7,6.1,2.2,8c1.1,1.4,2.6,2.1,4.5,2.1c2,0,3.6-0.8,4.9-2.3
				c1.3-1.6,1.9-4,1.9-7.4c0-3.6-0.7-6.3-2.1-8.1C382.7,514.7,381.1,514,379.1,514z"/>
			<path class="st1" d="M412.4,513.4l0.2,5H412c-0.1-0.9-0.3-1.5-0.5-1.9c-0.3-0.6-0.8-1.1-1.3-1.3c-0.5-0.3-1.2-0.4-2.1-0.4h-3
				v16.2c0,1.3,0.1,2.1,0.4,2.4c0.4,0.4,1,0.7,1.8,0.7h0.7v0.6h-9V534h0.8c0.9,0,1.5-0.3,1.9-0.8c0.2-0.3,0.3-1.1,0.3-2.3v-16.2
				h-2.5c-1,0-1.7,0.1-2.1,0.2c-0.5,0.2-1,0.6-1.4,1.1c-0.4,0.6-0.6,1.3-0.7,2.3h-0.6l0.2-5H412.4z"/>
			<path class="st1" d="M423.1,514.5v8.4h4.7c1.2,0,2-0.2,2.4-0.5c0.5-0.5,0.8-1.3,0.9-2.5h0.6v7.4h-0.6c-0.1-1-0.3-1.7-0.4-2
				c-0.2-0.4-0.5-0.7-0.9-0.9c-0.4-0.2-1.1-0.3-2-0.3h-4.7v7c0,0.9,0,1.5,0.1,1.7c0.1,0.2,0.2,0.4,0.4,0.5c0.2,0.1,0.6,0.2,1.2,0.2
				h3.6c1.2,0,2.1-0.1,2.6-0.3c0.5-0.2,1.1-0.5,1.6-1c0.6-0.6,1.3-1.6,2-2.9h0.6l-1.8,5.3H417V534h0.8c0.5,0,1-0.1,1.4-0.4
				c0.3-0.2,0.6-0.4,0.7-0.8c0.1-0.3,0.2-1,0.2-2v-13.8c0-1.3-0.1-2.2-0.4-2.5c-0.4-0.4-1-0.6-1.9-0.6H417v-0.6h16.3l0.2,4.6H433
				c-0.2-1.1-0.5-1.9-0.7-2.3c-0.3-0.4-0.7-0.7-1.2-1c-0.4-0.2-1.2-0.2-2.2-0.2H423.1z"/>
			<path class="st1" d="M457.3,528.7l0.5,0.1l-1.8,5.8h-16.4V534h0.8c0.9,0,1.5-0.3,1.9-0.9c0.2-0.3,0.3-1.1,0.3-2.3v-13.7
				c0-1.3-0.1-2.2-0.4-2.5c-0.4-0.5-1-0.7-1.8-0.7h-0.8v-0.6h9.6v0.6c-1.1,0-1.9,0.1-2.4,0.3c-0.5,0.2-0.8,0.5-0.9,0.8
				c-0.2,0.3-0.3,1.1-0.3,2.4v13.3c0,0.9,0.1,1.5,0.3,1.8c0.1,0.2,0.3,0.4,0.6,0.5c0.3,0.1,1.1,0.2,2.4,0.2h1.5
				c1.6,0,2.8-0.1,3.4-0.4c0.7-0.2,1.3-0.7,1.8-1.3C456.2,531,456.7,530,457.3,528.7z"/>
			<path class="st1" d="M487.6,520.9h6.6v0.6c-0.9,0.1-1.6,0.3-2,0.6c-0.4,0.3-1.1,1.3-2,3s-2,3.2-3.1,4.6c0.9,1.1,1.8,1.8,2.5,2.3
				c0.7,0.4,1.5,0.6,2.2,0.6c0.7,0,1.3-0.2,1.8-0.6c0.5-0.4,0.9-1,1.1-1.7l0.6,0.4c-0.4,1.5-1,2.6-1.9,3.3c-0.9,0.7-1.9,1-3,1
				c-0.9,0-1.7-0.2-2.6-0.7s-1.8-1.2-2.9-2.4c-1.3,1.1-2.5,1.9-3.5,2.4c-1,0.4-2.1,0.7-3.3,0.7c-1.7,0-3.1-0.5-4.1-1.4
				s-1.5-2-1.5-3.3c0-1.3,0.5-2.5,1.4-3.8c0.9-1.3,2.6-2.6,5.1-3.9c-0.5-1.1-0.8-2-1-2.7c-0.2-0.7-0.3-1.4-0.3-2
				c0-1.8,0.7-3.1,2-4.1c1-0.7,2.2-1.1,3.5-1.1c1.2,0,2.3,0.4,3,1.1c0.8,0.7,1.2,1.6,1.2,2.7c0,1.1-0.4,2.1-1.1,2.9s-2.1,1.7-4,2.7
				c1.3,2.4,2.7,4.5,4.1,6.5c1.8-2.2,2.8-4,2.8-5.5c0-0.5-0.2-0.9-0.5-1.3c-0.2-0.3-0.6-0.4-1-0.5V520.9z M484.1,531.1
				c-1.4-1.9-2.3-3.2-2.9-4.1c-0.5-0.9-1.1-1.9-1.8-3.2c-1.3,0.7-2.2,1.5-2.8,2.4c-0.6,0.9-0.9,1.8-0.9,2.8c0,1.1,0.4,2.1,1.1,2.9
				c0.7,0.8,1.7,1.3,2.9,1.3c0.7,0,1.3-0.1,1.9-0.4C482.2,532.5,483,532,484.1,531.1z M481.6,521.3c1.3-0.6,2.3-1.3,2.9-2.1
				c0.6-0.8,1-1.7,1-2.6c0-0.8-0.2-1.4-0.7-1.9c-0.5-0.5-1-0.7-1.7-0.7c-0.9,0-1.6,0.3-2.1,0.9c-0.5,0.6-0.7,1.2-0.7,1.9
				c0,0.5,0.1,1.1,0.3,1.7C480.8,519.2,481.1,520.1,481.6,521.3z"/>
			<path class="st1" d="M524.8,512.9v7.3h-0.6c-0.2-1.4-0.5-2.5-1-3.4c-0.5-0.8-1.2-1.5-2.1-2s-1.8-0.7-2.8-0.7c-1.1,0-2,0.3-2.7,1
				c-0.7,0.7-1.1,1.4-1.1,2.3c0,0.6,0.2,1.2,0.7,1.8c0.6,0.8,2.2,1.8,4.6,3.1c2,1.1,3.3,1.9,4.1,2.4c0.7,0.6,1.3,1.2,1.7,2
				c0.4,0.8,0.6,1.6,0.6,2.4c0,1.6-0.6,3-1.9,4.2c-1.2,1.2-2.8,1.7-4.8,1.7c-0.6,0-1.2,0-1.7-0.1c-0.3-0.1-1-0.2-2-0.6
				c-1-0.3-1.7-0.5-1.9-0.5c-0.3,0-0.5,0.1-0.6,0.2c-0.2,0.2-0.3,0.5-0.3,1h-0.6v-7.3h0.6c0.3,1.5,0.6,2.7,1.1,3.4s1.2,1.4,2.1,1.9
				c0.9,0.5,2,0.8,3.1,0.8c1.3,0,2.3-0.3,3.1-1c0.8-0.7,1.1-1.5,1.1-2.4c0-0.5-0.1-1-0.4-1.6s-0.7-1-1.3-1.5c-0.4-0.3-1.5-1-3.3-2
				s-3.1-1.8-3.9-2.4c-0.8-0.6-1.3-1.3-1.7-2c-0.4-0.7-0.6-1.5-0.6-2.4c0-1.5,0.6-2.8,1.8-3.9c1.2-1.1,2.7-1.7,4.5-1.7
				c1.1,0,2.3,0.3,3.6,0.8c0.6,0.3,1,0.4,1.2,0.4c0.3,0,0.5-0.1,0.7-0.2c0.2-0.2,0.3-0.5,0.4-1H524.8z"/>
			<path class="st1" d="M537.5,524.6v6.2c0,1.3,0.1,2.2,0.4,2.5c0.4,0.5,1,0.7,1.8,0.7h0.8v0.6h-9.1V534h0.8c0.9,0,1.5-0.3,1.9-0.9
				c0.2-0.3,0.3-1.1,0.3-2.3v-13.7c0-1.3-0.1-2.2-0.4-2.5c-0.4-0.5-1-0.7-1.8-0.7h-0.8v-0.6h7.8c1.9,0,3.4,0.2,4.5,0.6
				c1.1,0.4,2,1.1,2.8,2c0.8,0.9,1.1,2,1.1,3.3c0,1.7-0.6,3.1-1.7,4.2c-1.1,1.1-2.8,1.6-4.8,1.6c-0.5,0-1.1,0-1.7-0.1
				C538.8,524.9,538.2,524.8,537.5,524.6z M537.5,523.8c0.6,0.1,1,0.2,1.5,0.2c0.4,0.1,0.8,0.1,1.1,0.1c1.1,0,2-0.4,2.8-1.3
				c0.8-0.8,1.2-1.9,1.2-3.3c0-0.9-0.2-1.8-0.6-2.6c-0.4-0.8-0.9-1.4-1.6-1.8c-0.7-0.4-1.5-0.6-2.3-0.6c-0.5,0-1.2,0.1-2,0.3V523.8z
				"/>
			<path class="st1" d="M563.5,527.5h-8.2l-1.4,3.3c-0.4,0.8-0.5,1.4-0.5,1.8c0,0.3,0.2,0.6,0.5,0.9c0.3,0.2,1,0.4,2,0.5v0.6h-6.7
				V534c0.9-0.2,1.5-0.4,1.7-0.6c0.5-0.5,1.1-1.5,1.8-3.1l7.5-17.5h0.5l7.4,17.6c0.6,1.4,1.1,2.3,1.6,2.8c0.5,0.4,1.2,0.7,2,0.7v0.6
				h-8.4V534c0.8,0,1.4-0.2,1.7-0.4s0.4-0.5,0.4-0.9c0-0.5-0.2-1.2-0.6-2.2L563.5,527.5z M563,526.3l-3.6-8.6l-3.7,8.6H563z"/>
		</g>
	</g>
	<g>
		<circle class="st2" cx="360.1" cy="230.3" r="112.6"/>
	</g>
	<g>
		<path class="st3" d="M481.9,378.3H235.7v-4.4c0-7.2,5.8-13,13-13h221.4c6.5,0,11.7,5.2,11.7,11.7v5.7H481.9z"/>
	</g>
	<g>
		<path class="st3" d="M464.2,360.8H253.6v-4.4c0-7.2,5.8-13,13-13h185.8c6.5,0,11.7,5.2,11.7,11.7L464.2,360.8L464.2,360.8z"/>
	</g>
	<g>
		<path class="st3" d="M356.7,251.5h15c0,0,0.2,4.3,8.9,4.3c0.2,0.2,2.1,5.1,6.7,5.1c0,0.2-0.3,6.3,4.9,6.3v6.7h1.3v70
			c0,0,18.6,0.4,18.9,0.2v-54.2h-1v-9.7h1.2v-5.9h-1.1v-6.9l5.5-10.1h3.4v-7h7.2v3.9c0,0,3.8-1.9,5.3-6.8
			c4.8,0.3,20.8-33.6,20.8-33.6s0.2-6.5-2.3-7.1c0,2.4-3.2,7.8-7.3,8.5c-1.1,0.1-20.6,0.1-20.6,0.1s0.2-4.4-1.2-4.5
			c-1.4-0.2-1.9,4.5-1.9,4.5h-13.9l0.1,1.1c0,0-3.4-0.1-4.1-0.1c1.9-1.5,0.8-5.3-1.3-5.1c-0.9-0.2-1.1,4.9-2.7,5.1s-1-2.1-1-2.1
			l-3.8,2.1l-2.1-0.2h-34.8h1.3h-31.8l-2.1,0.2l-3.8-2.1c0,0,0.6,2.2-1,2.1s-1.8-5.3-2.7-5.1c-2.1-0.1-3.2,3.6-1.3,5.1
			c-0.6,0-4.1,0.1-4.1,0.1l0.1-1.1h-13.9c0,0-0.4-4.7-1.9-4.5c-1.4,0.2-1.2,4.5-1.2,4.5s-19.6,0-20.6-0.1c-4.1-0.7-7.3-6.1-7.3-8.5
			c-2.5,0.6-2.3,7.1-2.3,7.1s16,33.9,20.8,33.6c1.6,4.9,5.3,6.8,5.3,6.8v-3.9h7.2v7h3.4l5.5,10.1v6.9h-1.1v5.9h1.2v9.7h-1V344
			c0.2,0.2,18.9-0.2,18.9-0.2v-70h1.3v-6.7c5.2,0,4.9-6.2,4.9-6.3c4.6,0,6.4-4.8,6.7-5.1c8.7,0,8.9-4.3,8.9-4.3h12h-1.5V251.5z"/>
	</g>
	<g>
		<path class="st3" d="M359,337.5c0,0,1.7,1.6,1.6-8.2c4.6-0.5,22-2.5,23.1-8.7s-9.2-4.1-10.9-16.8c-0.2-7.9,1.3-7.3,0.8-9.3
			c-0.5-2.1-3.5-5.5-3.5-5.5l-0.3-2.7l-3.2-2.7l-1-10.9c0,0,1.7-0.5,1.3-5.7s-2.4-5.9-2.4-5.9s-2.3-12-5.1-12.4l-1-0.5
			c-2.9,0.3-4.9,12.8-4.9,12.8s-1.9,0.6-2.4,5.9c-0.5,5.2,1.3,5.7,1.3,5.7l-1,10.9l-3.2,2.7l-0.3,2.7c0,0-3,3.5-3.5,5.5
			c-0.5,2.1,1,1.4,0.8,9.3c-1.7,12.7-12,10.6-10.9,16.8c1.1,6.2,18.5,8.2,23.1,8.7C357.3,339.1,359.1,337.5,359,337.5L359,337.5z"/>
	</g>
	<g>
		<path class="st3" d="M327.2,266.3c0,0,9.3,18.9,21.1,20s1.4-3,1.4-3s-16.2-5.9-19.3-22.3S327.2,266.3,327.2,266.3z"/>
	</g>
	<g>
		<path class="st3" d="M352,281c0,0-3.7,0.6-4.9-4.6c-1.2-5.2-10.5-20.6-10.5-20.6l3.9-0.8c0,0,7.5,18,11.8,19.9
			C356.4,276.9,352,281,352,281z"/>
	</g>
	<g>
		<path class="st3" d="M365.9,275.2c0,0,1.1,2.5,11.9-20.3c3,0.1,2.1,1,2.1,1s-9.3,24.7-13.8,25.5S365.9,275.2,365.9,275.2z"/>
	</g>
	<g>
		<path class="st3" d="M366.6,283.5c0,0,12.7-0.9,20.7-22.7c3,4.5,1.8,6.5,1.8,6.5s-8.3,16.6-19.3,18.9S366.6,283.5,366.6,283.5z"/>
	</g>
	<g>
		<path class="st3" d="M326.5,216.1l4.9-5.6c0,0-1.4-1.4-1.5-3.2s2,1.3,3.3,1c1.2-0.4,5.2-8.6,5.6-11.6c0.5-3.1,0.5-3.1,0.5-3.1
			s-2.1-2.6-2.1-5s2.6-2.9,3.5-5s1.2-3.1,1.2-3.1s0.9-1.5,1.3,1.1s4.3,7.2,4.3,7.2s0.8,0.8-0.5,2.1c-1.2,1.3-2,1.8-1.6,2.8
			s4.6,13.7,5.5,13.8c0.8,0.1,4.2-14.3,4.3-16.1c0.1-1.8-2-1.8-1.9-5c0.1-3.1,3.9-5.2,3.9-5.2s-0.1-3,1.1-2.9s2.1,3.3,2.1,3.3
			s2.9,2.9,2.9,5s-1.2,3.9-1.2,3.9s2.1,17,3.9,17s5.1-10.6,5.3-13.1s-2.1-3.4-2.1-5.4c0.1-2,4.3-9,5.7-9.2c1.4-0.2,4.5,6.8,4.7,9
			s-1.1,1.7-1.2,3.3s0.4,13.2,5.5,15.6c3.7-0.5,3.4-0.2,3.4-0.2l-0.1,1.7l-1,0.1c0,0,0,5.7,4.9,7
			C396.2,217.6,326.5,216.1,326.5,216.1z"/>
	</g>
	<g>
		<path class="st4" d="M257.4,183.9c0,0,13.1-5.4,19.6-6s25.8-13.3,29-13s8.6,2.2,17.4,1.7c8.9-0.5,13.1-2.5,13.1-2.5
			s13.8-18.4,23.1-24.4c7,10.1,14.1,20.3,22.5,23.4c8.4,3.2,29,13,41.8,13.1c6.3,5.4,8.9,9.7,11.4,10.1c2.5,0.5,8.7-0.6,12.8,3.5
			s8.6,9,20,8.9c-1.3-4.1-2.1-6.3-2.1-6.3s-4,3.2-11.9-3.5s-10.1-6.7-17.3-7.4c-6.7-5.7-10.1-7.4-9.3-9.7s9-7.8,10.9-7.4
			c1.9,0.3,3.5,5.4,15.7,4.6c-2.4-3.8-4-5.7-4-5.7s-5.5,0.5-12.4-3.6c-5.7,3.2-12.2,8.4-15.8,9.8c-3.6,1.4-14.9-1.7-14.9-1.7l-23-9
			c0,0-11.9-7-17.1-15.4s-7.6-10-7.6-10s-20.3,19.8-24.4,25.7c-4.6,1.7-14.9,4.1-29.5,1.1c-15,4.4-25.8,9.7-26.3,11.7
			s-16,0.2-16,0.2L257.4,183.9z"/>
	</g>
</g>
</svg>
