<svg version="1.2" xmlns="http://www.w3.org/2000/svg" viewBox="0 0 486 523" width="486" height="523">
	<title>logo-svg</title>
	<style>
		.s0 { fill: #ffce35 } 
		.s1 { fill: #981c20 } 
		.s2 { fill: #ffffff } 
	</style>
	<path class="s0" d="m245.4 454c-121.3 0-219.4-98.1-219.4-219.4 0-121.3 98.1-219.4 219.4-219.4 121.3 0 219.4 98.1 219.4 219.4 0 121.3-98.1 219.4-219.4 219.4z"/>
	<path class="s1" d="m482.8 523h-479.8v-8.6c0-14 11.3-25.3 25.3-25.3h431.5c12.6 0 22.8 10.1 22.8 22.8v11.1z"/>
	<path class="s1" d="m448.3 488.9h-410.4v-8.6c0-14 11.3-25.3 25.3-25.3h362.1c12.6 0 22.8 10.1 22.8 22.8z"/>
	<path class="s1" d="m238.8 275.9h29.2c0 0 0.4 8.4 17.4 8.4 0.3 0.4 4 9.9 13 9.9 0 0.4-0.6 12.3 9.6 12.3v13.1h2.5v136.4c0 0 36.2 0.7 36.8 0.4v-105.7h-1.9v-18.9h2.3v-11.5h-2.1v-13.4l10.7-19.7h6.6v-13.6h14v7.6c0 0 7.4-3.7 10.4-13.3 9.3 0.6 40.5-65.4 40.5-65.4 0 0 0.4-12.7-4.5-13.9 0 4.7-6.2 15.2-14.2 16.6-2.1 0.2-40.1 0.2-40.1 0.2 0 0 0.3-8.6-2.4-8.8-2.7-0.4-3.7 8.8-3.7 8.8h-27.1l0.2 2.1c0 0-6.6-0.2-8-0.2 3.7-2.9 1.6-10.3-2.5-9.9-1.8-0.4-2.1 9.5-5.3 9.9-3.1 0.4-1.9-4.1-1.9-4.1l-7.4 4.1-4.1-0.4h-67.8 2.5-62l-4 0.4-7.5-4.1c0 0 1.2 4.3-1.9 4.1-3.1-0.2-3.5-10.3-5.3-9.9-4.1-0.2-6.2 7-2.5 9.9-1.2 0-8 0.2-8 0.2l0.2-2.1h-27.1c0 0-0.8-9.2-3.7-8.8-2.7 0.4-2.3 8.8-2.3 8.8 0 0-38.2 0-40.2-0.2-7.9-1.4-14.2-11.9-14.2-16.6-4.9 1.2-4.5 13.9-4.5 13.9 0 0 31.2 66 40.6 65.4 3.1 9.6 10.3 13.3 10.3 13.3v-7.6h14v13.6h6.7l10.7 19.7v13.4h-2.2v11.5h2.4v18.9h-2v105.5c0.4 0.4 36.8-0.4 36.8-0.4v-136.4h2.6v-13.1c10.1 0 9.5-12.1 9.5-12.3 9 0 12.5-9.3 13.1-9.9 16.9 0 17.3-8.4 17.3-8.4h23.4-2.9z"/>
	<path class="s1" d="m243.3 443.5c0 0 3.3 3.1 3.1-16 8.9-1 42.9-4.9 45-16.9 2.1-12.1-17.9-8-21.2-32.8-0.4-15.4 2.5-14.2 1.5-18.1-1-4.1-6.8-10.7-6.8-10.7l-0.6-5.3-6.2-5.2-2-21.3c0 0 3.3-0.9 2.6-11.1-0.8-10.1-4.7-11.5-4.7-11.5 0 0-4.5-23.4-10-24.1l-1.9-1c-5.7 0.6-9.6 24.9-9.6 24.9 0 0-3.7 1.2-4.6 11.5-1 10.2 2.5 11.1 2.5 11.1l-1.9 21.3-6.3 5.2-0.6 5.3c0 0-5.8 6.8-6.8 10.7-1 4.1 2 2.7 1.6 18.1-3.3 24.8-23.4 20.7-21.3 32.8 2.2 12.1 36.1 15.9 45 16.9-0.1 19.3 3.4 16.2 3.2 16.2z"/>
	<path class="s1" d="m181.3 304.8c0 0 18.1 36.8 41.1 38.9 23 2.2 2.7-5.8 2.7-5.8 0 0-31.5-11.5-37.6-43.5-6-31.9-6.2 10.4-6.2 10.4z"/>
	<path class="s1" d="m229.6 333.4c0 0-7.2 1.2-9.5-9-2.4-10.1-20.5-40.1-20.5-40.1l7.6-1.6c0 0 14.6 35.1 23 38.8 8 3.9-0.6 11.9-0.6 11.9z"/>
	<path class="s1" d="m256.7 322.1c0 0 2.2 4.9 23.2-39.6 5.8 0.2 4.1 2 4.1 2 0 0-18.1 48.1-26.9 49.7-8.8 1.5-0.4-12.1-0.4-12.1z"/>
	<path class="s1" d="m258.1 338.3c0 0 24.7-1.8 40.3-44.3 5.9 8.8 3.5 12.7 3.5 12.7 0 0-16.2 32.3-37.6 36.8-21.4 4.5-6.2-5.2-6.2-5.2z"/>
	<path class="s1" d="m179.9 206.9l9.6-10.9c0 0-2.7-2.7-2.9-6.2-0.2-3.5 3.9 2.5 6.4 1.9 2.3-0.7 10.1-16.7 10.9-22.6 1-6 1-6 1-6 0 0-4.1-5.1-4.1-9.8 0-4.6 5.1-5.6 6.8-9.7 1.8-4.1 2.3-6 2.3-6 0 0 1.8-3 2.6 2.1 0.8 5.1 8.4 14 8.4 14 0 0 1.5 1.6-1 4.1-2.4 2.6-3.9 3.5-3.1 5.5 0.7 1.9 8.9 26.7 10.7 26.9 1.5 0.2 8.2-27.9 8.4-31.4 0.2-3.5-3.9-3.5-3.7-9.7 0.2-6.1 7.6-10.2 7.6-10.2 0 0-0.2-5.8 2.1-5.6 2.3 0.2 4.1 6.4 4.1 6.4 0 0 5.6 5.7 5.6 9.7 0 4.1-2.3 7.6-2.3 7.6 0 0 4.1 33.2 7.6 33.2 3.5 0 9.9-20.7 10.3-25.6 0.4-4.8-4.1-6.6-4.1-10.5 0.2-3.9 8.4-17.5 11.1-17.9 2.8-0.4 8.8 13.2 9.2 17.5 0.4 4.3-2.1 3.3-2.3 6.5-0.2 3.1 0.7 25.7 10.7 30.4 7.2-1 6.6-0.4 6.6-0.4l-0.2 3.3-1.9 0.2c0 0 0 11.1 9.5 13.6 10 2.6-125.9-0.4-125.9-0.4z"/>
	<path class="s2" d="m45.3 144.2c0 0 25.5-10.5 38.2-11.7 12.6-1.2 50.3-25.9 56.5-25.3 6.2 0.5 16.7 4.2 33.9 3.3 17.3-1 25.5-4.9 25.5-4.9 0 0 26.9-35.9 45-47.5 13.7 19.6 27.5 39.5 43.9 45.6 16.3 6.2 56.5 25.3 81.4 25.5 12.3 10.5 17.4 18.9 22.2 19.7 4.9 0.9 17-1.2 25 6.8 8 8 16.7 17.5 39 17.3-2.6-8-4.1-12.3-4.1-12.3 0 0-7.8 6.3-23.2-6.8-15.4-13-19.7-13-33.7-14.4-13.1-11.1-19.7-14.4-18.2-18.9 1.6-4.5 17.6-15.2 21.3-14.4 3.7 0.6 6.8 10.5 30.6 9-4.7-7.5-7.8-11.2-7.8-11.2 0 0-10.7 1-24.2-7-11.1 6.3-23.7 16.4-30.8 19.1-7 2.8-29-3.3-29-3.3l-44.8-17.5c0 0-23.2-13.7-33.3-30-10.2-16.4-14.8-19.5-14.8-19.5 0 0-39.6 38.6-47.6 50.1-9 3.3-29 7.9-57.5 2.1-29.2 8.6-50.3 18.9-51.2 22.8-1 3.9-31.2 0.4-31.2 0.4z"/>
</svg>