<svg version="1.2" xmlns="http://www.w3.org/2000/svg" viewBox="0 0 720 523" width="720" height="523"><style>.a{fill:#346833}.b{fill:#ffce35}.c{fill:#981c20}.d{fill:#fff}</style><path class="a" d="m99.4 359.1l0.6 12.4h-1.5c-0.3-2.2-0.7-3.8-1.2-4.7-0.8-1.5-1.9-2.6-3.2-3.3-1.3-0.7-3.1-1.1-5.3-1.1h-7.5v40.6c0 3.3 0.4 5.3 1.1 6.1 1 1.1 2.5 1.6 4.6 1.6h1.8v1.4h-22.5v-1.4h1.9c2.2 0 3.8-0.7 4.8-2q0.9-1.2 0.9-5.7v-40.5h-6.4c-2.5 0-4.2 0.2-5.3 0.5-1.4 0.5-2.5 1.4-3.5 2.9-1 1.4-1.5 3.3-1.7 5.7h-1.5l0.6-12.4h43.3z"/><path class="a" d="m126.6 362v21h11.7c3 0 5-0.5 6.1-1.4 1.4-1.2 2.1-3.3 2.3-6.3h1.4v18.5h-1.4c-0.4-2.6-0.7-4.2-1.1-5-0.5-0.9-1.2-1.6-2.3-2.2-1.1-0.5-2.7-0.8-4.9-0.8h-11.7v17.5c0 2.3 0.1 3.8 0.3 4.3 0.2 0.5 0.6 0.9 1.1 1.2 0.5 0.3 1.5 0.5 3 0.5h9c3 0 5.2-0.2 6.5-0.6 1.4-0.4 2.7-1.2 3.9-2.5 1.6-1.6 3.3-4.1 5-7.3h1.6l-4.6 13.3h-40.9v-1.4h1.9c1.3 0 2.4-0.3 3.6-0.9 0.8-0.4 1.4-1 1.7-1.9 0.3-0.9 0.5-2.5 0.5-5.1v-34.5c0-3.4-0.3-5.4-1-6.2-0.9-1-2.5-1.6-4.7-1.6h-1.9v-1.4h40.9l0.6 11.6h-1.5c-0.5-2.8-1.2-4.7-1.8-5.8-0.7-1-1.6-1.8-3-2.4-1-0.4-2.9-0.6-5.5-0.6z"/><path class="a" d="m199.6 412.1l-20.5-44.6v35.5c0 3.3 0.4 5.3 1.1 6.1 1 1.1 2.5 1.6 4.6 1.6h1.9v1.4h-18.5v-1.4h1.9c2.2 0 3.8-0.7 4.8-2q0.9-1.2 0.9-5.7v-34.7c0-2.3-0.3-4-0.8-5.1-0.4-0.8-1-1.4-2-1.9-1-0.5-2.5-0.8-4.7-0.8v-1.4h15l19.2 41.5 18.9-41.5h15v1.4h-1.8c-2.3 0-3.9 0.7-4.8 2q-0.9 1.2-0.9 5.7v34.8c0 3.3 0.4 5.3 1.1 6.1 1 1.1 2.5 1.6 4.6 1.6h1.8v1.4h-22.5v-1.4h1.9c2.3 0 3.9-0.7 4.8-2q0.9-1.2 0.9-5.7v-35.4l-20.5 44.6h-1.4z"/><path fill-rule="evenodd" class="a" d="m262.4 387.3v15.5c0 3.3 0.4 5.4 1.1 6.2 1 1.1 2.5 1.7 4.5 1.7h2v1.4h-22.7v-1.4h2c2.2 0 3.8-0.7 4.8-2.2 0.5-0.8 0.8-2.7 0.8-5.8v-34.3c0-3.3-0.4-5.4-1.1-6.2-1-1.1-2.5-1.7-4.5-1.7h-2v-1.4h19.4c4.7 0 8.5 0.5 11.2 1.5 2.7 1 5 2.6 6.9 4.9 1.9 2.3 2.8 5.1 2.8 8.3 0 4.3-1.4 7.8-4.3 10.6-2.9 2.7-6.9 4.1-12.1 4.1-1.3 0-2.7-0.1-4.1-0.3-1.4-0.3-3-0.5-4.7-0.9zm0-2.2c1.4 0.3 2.6 0.5 3.7 0.6 1.1 0.1 2 0.2 2.7 0.2 2.7 0 5.1-1 7-3.1 2-2.1 3-4.8 3-8.2 0-2.3-0.5-4.4-1.4-6.4-0.9-2-2.3-3.4-4-4.4-1.7-1-3.7-1.5-5.9-1.5-1.3 0-3 0.2-5.1 0.7z"/><path class="a" d="m344.4 397.5l1.3 0.3-4.5 14.4h-41.2v-1.4h2c2.2 0 3.8-0.7 4.8-2.2 0.5-0.8 0.8-2.8 0.8-5.8v-34.2c0-3.3-0.4-5.4-1.1-6.2-1-1.1-2.5-1.7-4.5-1.7h-2v-1.4h24v1.4c-2.8 0-4.8 0.2-5.9 0.8-1.1 0.6-1.9 1.2-2.3 2.1q-0.6 1.2-0.6 6v33.3q0 3.3 0.6 4.5c0.3 0.5 0.8 1 1.4 1.2 0.7 0.3 2.7 0.4 6.1 0.4h3.9c4.1 0 6.9-0.3 8.6-0.9 1.7-0.6 3.1-1.7 4.5-3.2 1.4-1.5 2.7-4.1 4.1-7.4z"/><path class="a" d="m372 362v21h11.7c3 0 5-0.5 6.1-1.4 1.4-1.2 2.1-3.3 2.3-6.3h1.4v18.5h-1.5c-0.4-2.6-0.7-4.2-1.1-5-0.5-0.9-1.2-1.6-2.3-2.2-1.1-0.6-2.7-0.8-4.9-0.8h-11.7v17.5c0 2.3 0.1 3.8 0.3 4.3 0.2 0.5 0.6 0.9 1.1 1.2 0.5 0.3 1.5 0.5 3 0.5h9c3 0 5.2-0.2 6.5-0.6 1.4-0.4 2.7-1.2 3.9-2.5 1.6-1.6 3.3-4.1 5-7.3h1.6l-4.6 13.3h-40.9v-1.4h1.9c1.3 0 2.4-0.3 3.6-0.9 0.8-0.4 1.4-1 1.7-1.9 0.3-0.9 0.5-2.5 0.5-5.1v-34.5c0-3.4-0.3-5.4-1-6.2-0.9-1-2.5-1.6-4.7-1.6h-1.9v-1.4h40.9l0.6 11.6h-1.5c-0.5-2.8-1.2-4.7-1.8-5.8q-1-1.5-3-2.4c-1-0.4-2.9-0.6-5.5-0.6z"/><path fill-rule="evenodd" class="a" d="m477.1 385.1c3.7 0.8 6.4 2 8.3 3.8 2.5 2.4 3.8 5.3 3.8 8.8 0 2.6-0.8 5.2-2.5 7.6-1.7 2.4-4 4.2-6.9 5.3-2.9 1.1-7.3 1.7-13.3 1.7h-25v-1.4h2q3.3 0 4.8-2.1c0.6-0.9 0.9-2.9 0.9-5.8v-34.3c0-3.3-0.4-5.4-1.1-6.2-1-1.1-2.5-1.7-4.5-1.7h-2v-1.4h22.9c4.3 0 7.7 0.3 10.3 0.9 3.9 0.9 6.9 2.6 9 5 2.1 2.4 3.1 5.1 3.1 8.2 0 2.7-0.8 5-2.4 7.1-1.8 1.9-4.2 3.5-7.4 4.5zm-20.5-2.1c1 0.2 2.1 0.3 3.3 0.4 1.2 0.1 2.6 0.1 4.1 0.1 3.8 0 6.7-0.4 8.6-1.2 1.9-0.8 3.4-2.1 4.4-3.8 1-1.7 1.5-3.5 1.5-5.6 0-3.1-1.3-5.8-3.8-7.9q-3.7-3.3-11.1-3.3c-2.6 0-5 0.3-7 0.9zm0 25.3c3 0.7 6 1.1 9 1.1 4.7 0 8.3-1.1 10.8-3.2 2.5-2.1 3.7-4.8 3.7-7.9 0-2.1-0.6-4-1.7-5.9-1.1-1.9-2.9-3.4-5.5-4.5-2.5-1.1-5.7-1.6-9.4-1.6-1.6 0-3 0-4.1 0.1-1.1 0.1-2.1 0.1-2.8 0.3z"/><path class="a" d="m518.2 362v21h11.7c3 0 5-0.5 6.1-1.4 1.4-1.2 2.1-3.3 2.3-6.3h1.4v18.5h-1.4c-0.4-2.6-0.7-4.2-1.1-5-0.5-0.9-1.2-1.6-2.3-2.2-1.1-0.6-2.7-0.8-4.9-0.8h-11.7v17.5c0 2.3 0.1 3.8 0.3 4.3 0.2 0.5 0.6 0.9 1.1 1.2 0.5 0.3 1.5 0.5 3 0.5h9c3 0 5.2-0.2 6.5-0.6 1.4-0.4 2.7-1.2 3.9-2.5 1.6-1.6 3.3-4.1 5-7.3h1.6l-4.6 13.3h-40.9v-1.4h1.9c1.3 0 2.4-0.3 3.6-0.9 0.8-0.4 1.4-1 1.7-1.9 0.3-0.9 0.5-2.5 0.5-5.1v-34.5c0-3.4-0.3-5.4-1-6.2-0.9-1-2.5-1.6-4.7-1.6h-1.9v-1.4h40.7l0.6 11.6h-1.5c-0.5-2.8-1.2-4.7-1.8-5.8q-1.1-1.5-3-2.4c-1-0.4-2.9-0.6-5.5-0.6z"/><path class="a" d="m604.3 397.5l1.3 0.3-4.5 14.4h-41.1v-1.4h2c2.2 0 3.8-0.7 4.8-2.2 0.5-0.8 0.8-2.8 0.8-5.8v-34.2c0-3.3-0.4-5.4-1.1-6.2-1-1.1-2.5-1.7-4.5-1.7h-2v-1.4h24v1.4c-2.8 0-4.8 0.2-5.9 0.8-1.1 0.5-1.9 1.2-2.3 2.1q-0.6 1.2-0.6 6v33.3q0 3.3 0.6 4.5c0.3 0.5 0.8 1 1.4 1.2 0.7 0.3 2.7 0.4 6.1 0.4h3.9c4.1 0 6.9-0.3 8.6-0.9 1.7-0.6 3.1-1.7 4.5-3.2 1.3-1.7 2.6-4.1 4-7.4z"/><path class="a" d="m661.2 397.5l1.3 0.3-4.5 14.4h-41.1v-1.4h2c2.2 0 3.8-0.7 4.8-2.2 0.5-0.8 0.8-2.8 0.8-5.8v-34.2c0-3.3-0.4-5.4-1.1-6.2-1-1.1-2.5-1.7-4.5-1.7h-2v-1.4h24v1.4c-2.8 0-4.8 0.2-5.9 0.8-1.1 0.5-1.9 1.2-2.3 2.1q-0.6 1.2-0.6 6v33.3q0 3.3 0.6 4.5c0.3 0.5 0.8 1 1.4 1.2 0.7 0.3 2.7 0.4 6.1 0.4h3.9c4.1 0 6.9-0.3 8.6-0.9 1.7-0.6 3.1-1.7 4.5-3.2 1.3-1.7 2.6-4.1 4-7.4z"/><path fill-rule="evenodd" class="a" d="m157.8 455.8q2.3 0.4 3.3 1.5c1 1 1.5 2.1 1.5 3.5 0 1.1-0.3 2.1-1 3-0.7 0.9-1.6 1.7-2.7 2.1-1.2 0.4-2.9 0.7-5.3 0.7h-10v-0.6h0.8c0.9 0 1.5-0.3 1.9-0.8 0.2-0.4 0.4-1.1 0.4-2.3v-13.7c0-1.3-0.2-2.1-0.5-2.5-0.4-0.5-1-0.7-1.8-0.7h-0.8v-0.6h9.2c1.7 0 3.1 0.1 4.1 0.4 1.6 0.4 2.8 1 3.6 2q1.2 1.5 1.2 3.3c0 1.1-0.3 2-1 2.9-0.6 0.7-1.6 1.3-2.9 1.8zm-8.2-0.9c0.4 0.1 0.8 0.1 1.3 0.2 0.5 0 1 0.1 1.6 0.1 1.5 0 2.7-0.2 3.4-0.5q1.2-0.4 1.8-1.5c0.4-0.7 0.6-1.4 0.6-2.2 0-1.2-0.5-2.3-1.5-3.2-1-0.9-2.5-1.3-4.4-1.3-1 0-2 0.1-2.8 0.3zm0 10.1c1.2 0.3 2.4 0.4 3.6 0.4 1.9 0 3.3-0.4 4.3-1.3 1-0.8 1.5-1.9 1.5-3.2 0-0.8-0.2-1.6-0.7-2.4-0.4-0.8-1.2-1.4-2.2-1.8-1-0.4-2.3-0.7-3.8-0.7-0.6 0-1.2 0-1.7 0-0.5 0-0.8 0.1-1.1 0.1v8.9z"/><path fill-rule="evenodd" class="a" d="m179.1 444.9c2.8 0 5.1 1 7.2 3.1q3 3.2 3 7.8c0 3.2-1 5.9-3.1 8-2 2.1-4.5 3.2-7.4 3.2-2.9 0-5.4-1-7.4-3.1q-3-3.1-3-8.1c0-3.4 1.1-6.1 3.4-8.2 2.1-1.8 4.5-2.7 7.3-2.7zm-0.3 1.1c-1.9 0-3.4 0.7-4.6 2.1-1.4 1.8-2.1 4.3-2.1 7.7 0 3.5 0.7 6.1 2.2 8q1.7 2.1 4.5 2.1c2 0 3.6-0.8 4.9-2.3 1.3-1.6 1.9-4 1.9-7.4q0-5.4-2.1-8.1c-1.1-1.4-2.7-2.1-4.7-2.1z"/><path class="a" d="m208.8 445.9v-0.6h7.5v0.6h-0.8c-0.8 0-1.5 0.3-1.9 1-0.2 0.3-0.3 1.1-0.3 2.3v8.6c0 2.1-0.2 3.8-0.6 5-0.4 1.2-1.3 2.2-2.5 3-1.2 0.8-2.9 1.3-5 1.3-2.3 0-4.1-0.4-5.3-1.2-1.2-0.8-2-1.9-2.5-3.2-0.3-0.9-0.5-2.7-0.5-5.2v-8.3c0-1.3-0.2-2.2-0.5-2.6-0.4-0.4-0.9-0.6-1.7-0.6h-0.8v-0.6h9.2v0.6h-1.1c-0.9 0-1.5 0.3-1.9 0.8-0.3 0.4-0.4 1.2-0.4 2.3v9.2c0 0.8 0.1 1.8 0.2 2.8 0.2 1.1 0.4 1.9 0.8 2.5 0.4 0.6 1 1.1 1.7 1.5 0.7 0.4 1.7 0.6 2.7 0.6 1.4 0 2.6-0.3 3.7-0.9 1.1-0.6 1.8-1.4 2.2-2.3q0.6-1.4 0.6-4.8v-8.6c0-1.3-0.1-2.2-0.4-2.5-0.4-0.5-1-0.7-1.8-0.7z"/><path class="a" d="m238.2 445.4l0.2 5h-0.6c-0.1-0.9-0.3-1.5-0.5-1.9-0.3-0.6-0.8-1.1-1.3-1.3-0.5-0.3-1.2-0.4-2.1-0.4h-3v16.2c0 1.3 0.1 2.1 0.4 2.4 0.4 0.4 1 0.7 1.8 0.7h0.7v0.6h-9v-0.7h0.8c0.9 0 1.5-0.3 1.9-0.8 0.2-0.3 0.3-1.1 0.3-2.3v-16.2h-2.5c-1 0-1.7 0.1-2.1 0.2-0.5 0.2-1 0.6-1.4 1.1-0.4 0.6-0.6 1.3-0.7 2.3h-0.6l0.3-5h17.4z"/><path class="a" d="m252.1 466v0.6h-9.1v-0.6h0.8c0.9 0 1.5-0.3 1.9-0.8 0.3-0.3 0.4-1.1 0.4-2.4v-13.7c0-1.1-0.1-1.8-0.2-2.1-0.1-0.3-0.3-0.5-0.6-0.7-0.5-0.2-0.9-0.4-1.4-0.4h-0.9v-0.6h9.1v0.6h-0.8c-0.9 0-1.5 0.3-1.9 0.8-0.3 0.3-0.4 1.1-0.4 2.4v13.7c0 1.1 0.1 1.8 0.2 2.1 0.1 0.3 0.3 0.5 0.7 0.7 0.4 0.2 0.9 0.4 1.4 0.4z"/><path fill-rule="evenodd" class="a" d="m269.9 466.8c1.1 1.8 2.2 3.2 3.4 4.1q1.8 1.3 4.2 1.5v0.5c-1.4-0.1-3-0.3-4.6-0.9-1.6-0.5-3.2-1.3-4.7-2.2-1.5-0.9-2.7-1.9-3.8-3-1.5-0.6-2.7-1.2-3.6-1.9-1.3-1-2.3-2.3-3-3.7-0.7-1.5-1.1-3.2-1.1-5.2 0-3.2 1-5.8 3.1-7.9 2.1-2.1 4.5-3.1 7.5-3.1 2.8 0 5.2 1.1 7.2 3.2 2 2.1 3 4.8 3 8 0 2.6-0.7 4.9-2.2 6.8-1.2 1.8-3.1 3.1-5.4 3.8zm-2.6-20.7c-1.9 0-3.4 0.7-4.6 2-1.5 1.7-2.2 4.3-2.2 7.8 0 3.4 0.7 6.1 2.2 7.9 1.1 1.4 2.7 2.1 4.6 2.1 2 0 3.5-0.7 4.7-2.1q2.1-2.6 2.1-7.5c0-2.5-0.4-4.7-1.2-6.4-0.6-1.3-1.4-2.3-2.4-2.9-0.9-0.6-2-0.9-3.2-0.9z"/><path class="a" d="m297.2 445.9v-0.6h7.5v0.6h-0.8c-0.8 0-1.5 0.3-1.9 1-0.2 0.3-0.3 1.1-0.3 2.3v8.6c0 2.1-0.2 3.8-0.6 5-0.4 1.2-1.3 2.2-2.5 3-1.2 0.8-2.9 1.3-5 1.3-2.3 0-4.1-0.4-5.3-1.2-1.2-0.8-2-1.9-2.5-3.2-0.3-0.9-0.5-2.7-0.5-5.2v-8.3c0-1.3-0.2-2.2-0.5-2.6-0.4-0.4-0.9-0.6-1.7-0.6h-0.8v-0.6h9.2v0.6h-0.8c-0.9 0-1.5 0.3-1.9 0.8-0.3 0.4-0.4 1.2-0.4 2.3v9.2c0 0.8 0.1 1.8 0.2 2.8 0.2 1.1 0.4 1.9 0.8 2.5 0.4 0.6 1 1.1 1.7 1.5 0.7 0.4 1.7 0.6 2.7 0.6 1.4 0 2.6-0.3 3.7-0.9 1.1-0.6 1.8-1.4 2.2-2.3q0.6-1.4 0.6-4.8v-8.6c0-1.3-0.1-2.2-0.4-2.5-0.4-0.5-1-0.7-1.8-0.7z"/><path class="a" d="m314.7 446.5v8.4h4.7c1.2 0 2-0.2 2.4-0.5 0.5-0.5 0.8-1.3 0.9-2.5h0.6v7.4h-0.6c-0.1-1-0.3-1.7-0.4-2q-0.3-0.6-0.9-0.9c-0.4-0.2-1.1-0.3-2-0.3h-4.7v7c0 0.9 0 1.5 0.1 1.7 0.1 0.2 0.2 0.4 0.4 0.5 0.2 0.1 0.6 0.2 1.2 0.2h3.6c1.2 0 2.1-0.1 2.6-0.3 0.5-0.2 1.1-0.5 1.6-1 0.6-0.6 1.3-1.6 2-2.9h0.6l-1.8 5.3h-16.3v-0.6h0.8c0.5 0 1-0.1 1.4-0.4 0.3-0.2 0.6-0.4 0.7-0.8 0.1-0.3 0.2-1 0.2-2v-13.8c0-1.3-0.1-2.2-0.4-2.5-0.4-0.4-1-0.6-1.9-0.6h-0.8v-0.6h16.3l0.2 4.6h-0.6c-0.2-1.1-0.5-1.9-0.7-2.3-0.3-0.4-0.7-0.7-1.2-1-0.4-0.2-1.2-0.2-2.2-0.2h-5.8z"/><path class="a" d="m348.2 455.2h9.9v-6.1c0-1.1-0.1-1.8-0.2-2.1-0.1-0.3-0.3-0.5-0.7-0.7-0.4-0.2-0.9-0.4-1.4-0.4h-0.8v-0.6h9.1v0.6h-0.8c-0.5 0-1 0.1-1.4 0.4-0.3 0.2-0.6 0.4-0.7 0.8-0.1 0.3-0.2 1-0.2 2.1v13.7c0 1.1 0.1 1.8 0.2 2.1 0.1 0.3 0.3 0.5 0.6 0.7 0.5 0.2 0.9 0.4 1.4 0.4h0.8v0.6h-9v-0.7h0.8c0.9 0 1.5-0.3 1.9-0.8 0.3-0.3 0.4-1.1 0.4-2.4v-6.5h-9.9v6.5c0 1.1 0.1 1.8 0.2 2.1 0.1 0.3 0.3 0.5 0.7 0.7 0.4 0.2 0.9 0.4 1.4 0.4h0.8v0.6h-9.1v-0.6h0.8c0.9 0 1.5-0.3 1.9-0.8 0.2-0.3 0.4-1.1 0.4-2.4v-13.7c0-1.1-0.1-1.8-0.2-2.1-0.1-0.3-0.3-0.5-0.6-0.7-0.5-0.2-0.9-0.4-1.4-0.4h-0.8v-0.6h9.1v0.6h-0.8c-0.5 0-1 0.1-1.4 0.4-0.3 0.2-0.5 0.4-0.7 0.8-0.1 0.3-0.2 1-0.2 2.1v6z"/><path fill-rule="evenodd" class="a" d="m379.4 444.9c2.8 0 5.1 1 7.2 3.1q3 3.2 3 7.8c0 3.2-1 5.9-3.1 8-2 2.1-4.5 3.2-7.4 3.2-2.9 0-5.4-1-7.4-3.1q-3-3.1-3-8.1c0-3.4 1.1-6.1 3.4-8.2 2.2-1.8 4.5-2.7 7.3-2.7zm-0.3 1.1c-1.9 0-3.4 0.7-4.6 2.1-1.4 1.8-2.1 4.3-2.1 7.7 0 3.5 0.7 6.1 2.2 8q1.7 2.1 4.5 2.1c2 0 3.6-0.8 4.9-2.3 1.3-1.6 1.9-4 1.9-7.4q0-5.4-2.1-8.1c-1.1-1.4-2.7-2.1-4.7-2.1z"/><path class="a" d="m412.4 445.4l0.2 5h-0.6c-0.1-0.9-0.3-1.5-0.5-1.9-0.3-0.6-0.8-1.1-1.3-1.3-0.5-0.3-1.2-0.4-2.1-0.4h-3v16.2c0 1.3 0.1 2.1 0.4 2.4 0.4 0.4 1 0.7 1.8 0.7h0.7v0.6h-9v-0.7h0.8c0.9 0 1.5-0.3 1.9-0.8 0.2-0.3 0.3-1.1 0.3-2.3v-16.2h-2.5c-1 0-1.7 0.1-2.1 0.2-0.5 0.2-1 0.6-1.4 1.1-0.4 0.6-0.6 1.3-0.7 2.3h-0.6l0.2-5h17.5z"/><path class="a" d="m423.1 446.5v8.4h4.7c1.2 0 2-0.2 2.4-0.5 0.5-0.5 0.8-1.3 0.9-2.5h0.6v7.4h-0.6c-0.1-1-0.3-1.7-0.4-2q-0.3-0.6-0.9-0.9c-0.4-0.2-1.1-0.3-2-0.3h-4.7v7c0 0.9 0 1.5 0.1 1.7 0.1 0.2 0.2 0.4 0.4 0.5 0.2 0.1 0.6 0.2 1.2 0.2h3.6c1.2 0 2.1-0.1 2.6-0.3 0.5-0.2 1.1-0.5 1.6-1 0.6-0.6 1.3-1.6 2-2.9h0.6l-1.8 5.3h-16.4v-0.6h0.8c0.5 0 1-0.1 1.4-0.4 0.3-0.2 0.6-0.4 0.7-0.8 0.1-0.3 0.2-1 0.2-2v-13.8c0-1.3-0.1-2.2-0.4-2.5-0.4-0.4-1-0.6-1.9-0.6h-0.8v-0.6h16.3l0.2 4.6h-0.5c-0.2-1.1-0.5-1.9-0.7-2.3-0.3-0.4-0.7-0.7-1.2-1-0.4-0.2-1.2-0.2-2.2-0.2h-5.8z"/><path class="a" d="m457.3 460.7l0.5 0.1-1.8 5.8h-16.4v-0.6h0.8c0.9 0 1.5-0.3 1.9-0.9 0.2-0.3 0.3-1.1 0.3-2.3v-13.7c0-1.3-0.1-2.2-0.4-2.5-0.4-0.5-1-0.7-1.8-0.7h-0.8v-0.6h9.6v0.6q-1.6 0-2.4 0.3c-0.5 0.2-0.8 0.5-0.9 0.8q-0.3 0.4-0.3 2.4v13.3q0 1.3 0.3 1.8c0.1 0.2 0.3 0.4 0.6 0.5 0.3 0.1 1.1 0.2 2.4 0.2h1.5c1.6 0 2.8-0.1 3.4-0.4 0.7-0.2 1.3-0.7 1.8-1.3 0.6-0.5 1.1-1.5 1.7-2.8z"/><path fill-rule="evenodd" class="a" d="m494.2 452.9v0.6c-0.9 0.1-1.6 0.3-2 0.6-0.4 0.3-1.1 1.3-2 3-0.9 1.7-2 3.2-3.1 4.6 0.9 1.1 1.8 1.8 2.5 2.3 0.7 0.4 1.5 0.6 2.2 0.6q1.1 0 1.8-0.6c0.5-0.4 0.9-1 1.1-1.7l0.6 0.4c-0.4 1.5-1 2.6-1.9 3.3-0.9 0.7-1.9 1-3 1-0.9 0-1.7-0.2-2.6-0.7-0.9-0.5-1.8-1.2-2.9-2.4-1.3 1.1-2.5 1.9-3.5 2.4-1 0.4-2.1 0.7-3.3 0.7-1.7 0-3.1-0.5-4.1-1.4q-1.5-1.4-1.5-3.3c0-1.3 0.5-2.5 1.4-3.8q1.4-2 5.1-3.9c-0.5-1.1-0.8-2-1-2.7-0.2-0.7-0.3-1.4-0.3-2 0-1.8 0.7-3.1 2-4.1 1-0.7 2.2-1.1 3.5-1.1 1.2 0 2.3 0.4 3 1.1q1.2 1 1.2 2.7c0 1.1-0.4 2.1-1.1 2.9-0.7 0.8-2.1 1.7-4 2.7 1.3 2.4 2.7 4.5 4.1 6.5 1.8-2.2 2.8-4 2.8-5.5 0-0.5-0.2-0.9-0.5-1.3-0.2-0.3-0.6-0.4-1-0.5v-0.4zm-10.1 10.2c-1.4-1.9-2.3-3.2-2.9-4.1-0.5-0.9-1.1-1.9-1.8-3.2-1.3 0.7-2.2 1.5-2.8 2.4-0.6 0.9-0.9 1.8-0.9 2.8 0 1.1 0.4 2.1 1.1 2.9 0.7 0.8 1.7 1.3 2.9 1.3 0.7 0 1.3-0.1 1.9-0.4 0.6-0.3 1.4-0.8 2.5-1.7zm-2.5-9.8c1.3-0.6 2.3-1.3 2.9-2.1 0.6-0.8 1-1.7 1-2.6 0-0.8-0.2-1.4-0.7-1.9-0.5-0.5-1-0.7-1.7-0.7q-1.3 0-2.1 0.9c-0.5 0.6-0.7 1.2-0.7 1.9 0 0.5 0.1 1.1 0.3 1.7 0.2 0.7 0.5 1.6 1 2.8z"/><path class="a" d="m524.8 444.9v7.3h-0.6c-0.2-1.4-0.5-2.5-1-3.4-0.5-0.8-1.2-1.5-2.1-2-0.9-0.5-1.8-0.7-2.8-0.7-1.1 0-2 0.3-2.7 1-0.7 0.7-1.1 1.4-1.1 2.3 0 0.6 0.2 1.2 0.7 1.8 0.6 0.8 2.2 1.8 4.6 3.1 2 1.1 3.3 1.9 4.1 2.4 0.7 0.6 1.3 1.2 1.7 2q0.6 1.2 0.6 2.4c0 1.6-0.6 3-1.9 4.2-1.2 1.2-2.8 1.7-4.8 1.7-0.6 0-1.2 0-1.7-0.1-0.3-0.1-1-0.2-2-0.6-1-0.3-1.7-0.5-1.9-0.5-0.3 0-0.5 0.1-0.6 0.2-0.2 0.2-0.3 0.5-0.3 1h-0.6v-7.3h0.6c0.3 1.5 0.6 2.7 1.1 3.4 0.5 0.7 1.2 1.4 2.1 1.9 0.9 0.5 2 0.8 3.1 0.8 1.3 0 2.3-0.3 3.1-1 0.8-0.7 1.1-1.5 1.1-2.4 0-0.5-0.1-1-0.4-1.6-0.3-0.6-0.7-1-1.3-1.5-0.4-0.3-1.5-1-3.3-2q-2.7-1.5-3.9-2.4c-0.8-0.6-1.3-1.3-1.7-2q-0.6-1.1-0.6-2.4 0-2.3 1.8-3.9c1.2-1.1 2.7-1.7 4.5-1.7 1.1 0 2.3 0.3 3.6 0.8 0.6 0.3 1 0.4 1.2 0.4 0.3 0 0.5-0.1 0.7-0.2 0.2-0.2 0.3-0.5 0.4-1z"/><path fill-rule="evenodd" class="a" d="m537.5 456.6v6.2c0 1.3 0.1 2.2 0.4 2.5 0.4 0.5 1 0.7 1.8 0.7h0.8v0.6h-9.1v-0.6h0.8c0.9 0 1.5-0.3 1.9-0.9 0.2-0.3 0.3-1.1 0.3-2.3v-13.7c0-1.3-0.1-2.2-0.4-2.5-0.4-0.5-1-0.7-1.8-0.7h-0.8v-0.6h7.8q2.8 0 4.5 0.6c1.1 0.4 2 1.1 2.8 2 0.8 0.9 1.1 2 1.1 3.3 0 1.7-0.6 3.1-1.7 4.2-1.1 1.1-2.8 1.6-4.8 1.6-0.5 0-1.1 0-1.7-0.1-0.6 0-1.2-0.1-1.9-0.3zm0-0.8c0.6 0.1 1 0.2 1.5 0.2 0.4 0.1 0.8 0.1 1.1 0.1 1.1 0 2-0.4 2.8-1.3q1.2-1.2 1.2-3.3c0-0.9-0.2-1.8-0.6-2.6-0.4-0.8-0.9-1.4-1.6-1.8-0.7-0.4-1.5-0.6-2.3-0.6-0.5 0-1.2 0.1-2 0.3v9z"/><path fill-rule="evenodd" class="a" d="m563.5 459.5h-8.2l-1.4 3.3c-0.4 0.8-0.5 1.4-0.5 1.8 0 0.3 0.2 0.6 0.5 0.9 0.3 0.2 1 0.4 2 0.5v0.6h-6.7v-0.6c0.9-0.2 1.5-0.4 1.7-0.6 0.5-0.5 1.1-1.5 1.8-3.1l7.5-17.5h0.5l7.4 17.6c0.6 1.4 1.1 2.3 1.6 2.8 0.5 0.4 1.2 0.7 2 0.7v0.6h-8.4v-0.5c0.8 0 1.4-0.2 1.7-0.4 0.3-0.2 0.4-0.5 0.4-0.9 0-0.5-0.2-1.2-0.6-2.2zm-0.5-1.2l-3.6-8.6-3.7 8.6z"/><path class="b" d="m360.1 274.9c-62.3 0-112.6-50.3-112.6-112.6 0-62.3 50.3-112.6 112.6-112.6 62.3 0 112.6 50.3 112.6 112.6 0 62.3-50.3 112.6-112.6 112.6z"/><path class="c" d="m481.9 310.3h-246.2v-4.4c0-7.2 5.8-13 13-13h221.4c6.5 0 11.7 5.2 11.7 11.7v5.7z"/><path class="c" d="m464.2 292.8h-210.6v-4.4c0-7.2 5.8-13 13-13h185.8c6.5 0 11.7 5.2 11.7 11.7z"/><path class="c" d="m356.7 183.5h15c0 0 0.2 4.3 8.9 4.3 0.2 0.2 2.1 5.1 6.7 5.1 0 0.2-0.3 6.3 4.9 6.3v6.7h1.3v70c0 0 18.6 0.4 18.9 0.2v-54.2h-1v-9.7h1.2v-5.9h-1.1v-6.9l5.5-10.1h3.4v-7h7.2v3.9c0 0 3.8-1.9 5.3-6.8 4.8 0.3 20.8-33.6 20.8-33.6 0 0 0.2-6.5-2.3-7.1 0 2.4-3.2 7.8-7.3 8.5-1.1 0.1-20.6 0.1-20.6 0.1 0 0 0.2-4.4-1.2-4.5-1.4-0.2-1.9 4.5-1.9 4.5h-13.9l0.1 1.1c0 0-3.4-0.1-4.1-0.1 1.9-1.5 0.8-5.3-1.3-5.1-0.9-0.2-1.1 4.9-2.7 5.1-1.6 0.2-1-2.1-1-2.1l-3.8 2.1-2.1-0.2h-34.8 1.3-31.8l-2.1 0.2-3.8-2.1c0 0 0.6 2.2-1 2.1-1.6-0.1-1.8-5.3-2.7-5.1-2.1-0.1-3.2 3.6-1.3 5.1-0.6 0-4.1 0.1-4.1 0.1l0.1-1.1h-13.9c0 0-0.4-4.7-1.9-4.5-1.4 0.2-1.2 4.5-1.2 4.5 0 0-19.6 0-20.6-0.1-4.1-0.7-7.3-6.1-7.3-8.5-2.5 0.6-2.3 7.1-2.3 7.1 0 0 16 33.9 20.8 33.6 1.6 4.9 5.3 6.8 5.3 6.8v-3.9h7.2v7h3.4l5.5 10.1v6.9h-1.1v5.9h1.2v9.7h-1v54.1c0.2 0.2 18.9-0.2 18.9-0.2v-70h1.3v-6.7c5.2 0 4.9-6.2 4.9-6.3 4.6 0 6.4-4.8 6.7-5.1 8.7 0 8.9-4.3 8.9-4.3h12-1.5z"/><path class="c" d="m359 269.5c0 0 1.7 1.6 1.6-8.2 4.6-0.5 22-2.5 23.1-8.7 1.1-6.2-9.2-4.1-10.9-16.8-0.2-7.9 1.3-7.3 0.8-9.3-0.5-2.1-3.5-5.5-3.5-5.5l-0.3-2.7-3.2-2.7-1-10.9c0 0 1.7-0.5 1.3-5.7-0.4-5.2-2.4-5.9-2.4-5.9 0 0-2.3-12-5.1-12.4l-1-0.5c-2.9 0.3-4.9 12.8-4.9 12.8 0 0-1.9 0.6-2.4 5.9-0.5 5.2 1.3 5.7 1.3 5.7l-1 10.9-3.2 2.7-0.3 2.7c0 0-3 3.5-3.5 5.5-0.5 2.1 1 1.4 0.8 9.3-1.7 12.7-12 10.6-10.9 16.8 1.1 6.2 18.5 8.2 23.1 8.7-0.1 9.9 1.7 8.3 1.6 8.3z"/><path class="c" d="m327.2 198.3c0 0 9.3 18.9 21.1 20 11.8 1.1 1.4-3 1.4-3 0 0-16.2-5.9-19.3-22.3-3.1-16.4-3.2 5.3-3.2 5.3z"/><path class="c" d="m352 213c0 0-3.7 0.6-4.9-4.6-1.2-5.2-10.5-20.6-10.5-20.6l3.9-0.8c0 0 7.5 18 11.8 19.9 4.1 2-0.3 6.1-0.3 6.1z"/><path class="c" d="m365.9 207.2c0 0 1.1 2.5 11.9-20.3 3 0.1 2.1 1 2.1 1 0 0-9.3 24.7-13.8 25.5-4.5 0.8-0.2-6.2-0.2-6.2z"/><path class="c" d="m366.6 215.5c0 0 12.7-0.9 20.7-22.7 3 4.5 1.8 6.5 1.8 6.5 0 0-8.3 16.6-19.3 18.9-11 2.3-3.2-2.7-3.2-2.7z"/><path class="c" d="m326.5 148.1l4.9-5.6c0 0-1.4-1.4-1.5-3.2-0.1-1.8 2 1.3 3.3 1 1.2-0.4 5.2-8.6 5.6-11.6 0.5-3.1 0.5-3.1 0.5-3.1 0 0-2.1-2.6-2.1-5 0-2.4 2.6-2.9 3.5-5 0.9-2.1 1.2-3.1 1.2-3.1 0 0 0.9-1.5 1.3 1.1 0.4 2.6 4.3 7.2 4.3 7.2 0 0 0.8 0.8-0.5 2.1-1.2 1.3-2 1.8-1.6 2.8 0.4 1 4.6 13.7 5.5 13.8 0.8 0.1 4.2-14.3 4.3-16.1 0.1-1.8-2-1.8-1.9-5 0.1-3.1 3.9-5.2 3.9-5.2 0 0-0.1-3 1.1-2.9 1.2 0.1 2.1 3.3 2.1 3.3 0 0 2.9 2.9 2.9 5 0 2.1-1.2 3.9-1.2 3.9 0 0 2.1 17 3.9 17 1.8 0 5.1-10.6 5.3-13.1 0.2-2.5-2.1-3.4-2.1-5.4 0.1-2 4.3-9 5.7-9.2 1.4-0.2 4.5 6.8 4.7 9 0.2 2.2-1.1 1.7-1.2 3.3-0.1 1.6 0.4 13.2 5.5 15.6 3.7-0.5 3.4-0.2 3.4-0.2l-0.1 1.7-1 0.1c0 0 0 5.7 4.9 7 5.1 1.3-64.6-0.2-64.6-0.2z"/><path class="d" d="m257.4 115.9c0 0 13.1-5.4 19.6-6 6.5-0.6 25.8-13.3 29-13 3.2 0.3 8.6 2.2 17.4 1.7 8.9-0.5 13.1-2.5 13.1-2.5 0 0 13.8-18.4 23.1-24.4 7 10.1 14.1 20.3 22.5 23.4 8.4 3.2 29 13 41.8 13.1 6.3 5.4 8.9 9.7 11.4 10.1 2.5 0.5 8.7-0.6 12.8 3.5 4.1 4.1 8.6 9 20 8.9-1.3-4.1-2.1-6.3-2.1-6.3 0 0-4 3.2-11.9-3.5-7.9-6.7-10.1-6.7-17.3-7.4-6.7-5.7-10.1-7.4-9.3-9.7 0.8-2.3 9-7.8 10.9-7.4 1.9 0.3 3.5 5.4 15.7 4.6-2.4-3.8-4-5.7-4-5.7 0 0-5.5 0.5-12.4-3.6-5.7 3.2-12.2 8.4-15.8 9.8-3.6 1.4-14.9-1.7-14.9-1.7l-23-9c0 0-11.9-7-17.1-15.4-5.2-8.4-7.6-10-7.6-10 0 0-20.3 19.8-24.4 25.7-4.6 1.7-14.9 4.1-29.5 1.1-15 4.4-25.8 9.7-26.3 11.7-0.5 2-16 0.2-16 0.2z"/></svg>